<svg width="40" height="40" viewBox="0 0 40 40" fill="none" xmlns="http://www.w3.org/2000/svg">
<rect width="40" height="40" rx="8" fill="#334FA3"/>
<g clip-path="url(#clip0)">
<path d="M15.86 7.98483C15.8394 7.98858 15.8188 7.99421 15.8 7.99983C15.6425 8.03546 15.5131 8.14609 15.455 8.29796C15.3969 8.44983 15.4194 8.61859 15.515 8.74983L16.535 10.2798C14.8081 11.1873 13.5688 12.753 13.28 14.6148C13.28 14.6205 13.28 14.6242 13.28 14.6298C13.28 14.6355 13.28 14.6392 13.28 14.6448C13.28 14.6598 13.28 14.6748 13.28 14.6898C13.28 14.6992 13.28 14.7105 13.28 14.7198C13.2781 14.7442 13.2781 14.7705 13.28 14.7948V15.4698C12.995 15.303 12.6725 15.1998 12.32 15.1998C11.2644 15.1998 10.4 16.0642 10.4 17.1198V22.8798C10.4 23.9355 11.2644 24.7998 12.32 24.7998C12.6725 24.7998 12.995 24.6967 13.28 24.5298V25.7598C13.28 26.5492 13.9306 27.1998 14.72 27.1998H15.2V30.0798C15.2 31.1355 16.0644 31.9998 17.12 31.9998C18.1756 31.9998 19.04 31.1355 19.04 30.0798V27.1998H20.96V30.0798C20.96 31.1355 21.8244 31.9998 22.88 31.9998C23.9356 31.9998 24.8 31.1355 24.8 30.0798V27.1998H25.28C26.0694 27.1998 26.72 26.5492 26.72 25.7598V24.5298C27.005 24.6967 27.3275 24.7998 27.68 24.7998C28.7356 24.7998 29.6 23.9355 29.6 22.8798V17.1198C29.6 16.0642 28.7356 15.1998 27.68 15.1998C27.3275 15.1998 27.005 15.303 26.72 15.4698V14.8098C26.7256 14.7648 26.7256 14.7198 26.72 14.6748C26.72 14.6692 26.72 14.6655 26.72 14.6598C26.72 14.6542 26.72 14.6505 26.72 14.6448C26.4406 12.7698 25.2013 11.1911 23.465 10.2798L24.485 8.74983C24.6031 8.58859 24.6069 8.37109 24.4963 8.20421C24.3875 8.03733 24.185 7.95483 23.99 7.99983C23.8663 8.02796 23.7575 8.10296 23.69 8.20983L22.565 9.87483C21.7738 9.58983 20.9038 9.43983 20 9.43983C19.0963 9.43983 18.2263 9.58983 17.435 9.87483L16.31 8.20983C16.2144 8.05609 16.04 7.96983 15.86 7.98483ZM20 10.3998C20.9019 10.3998 21.7475 10.5761 22.49 10.8948C22.505 10.9005 22.52 10.9061 22.535 10.9098C24.0369 11.568 25.13 12.7998 25.55 14.2398H14.45C14.8644 12.8205 15.935 11.6036 17.405 10.9398C17.4369 10.9286 17.4669 10.9136 17.495 10.8948C18.2413 10.5723 19.0925 10.3998 20 10.3998ZM17.36 11.8398C16.9606 11.8398 16.64 12.1623 16.64 12.5598C16.64 12.9592 16.9606 13.2798 17.36 13.2798C17.7575 13.2798 18.08 12.9592 18.08 12.5598C18.08 12.1623 17.7575 11.8398 17.36 11.8398ZM22.64 11.8398C22.2425 11.8398 21.92 12.1623 21.92 12.5598C21.92 12.9592 22.2425 13.2798 22.64 13.2798C23.0394 13.2798 23.36 12.9592 23.36 12.5598C23.36 12.1623 23.0394 11.8398 22.64 11.8398ZM14.24 15.1998H25.76V25.7598C25.76 26.0298 25.55 26.2398 25.28 26.2398H21.53C21.4663 26.2267 21.3988 26.2267 21.335 26.2398H15.77C15.7063 26.2267 15.6388 26.2267 15.575 26.2398H14.72C14.45 26.2398 14.24 26.0298 14.24 25.7598V15.1998ZM12.32 16.1598C12.8563 16.1598 13.28 16.5836 13.28 17.1198V22.8798C13.28 23.4161 12.8563 23.8398 12.32 23.8398C11.7838 23.8398 11.36 23.4161 11.36 22.8798V17.1198C11.36 16.5836 11.7838 16.1598 12.32 16.1598ZM27.68 16.1598C28.2163 16.1598 28.64 16.5836 28.64 17.1198V22.8798C28.64 23.4161 28.2163 23.8398 27.68 23.8398C27.1438 23.8398 26.72 23.4161 26.72 22.8798V17.1198C26.72 16.5836 27.1438 16.1598 27.68 16.1598ZM16.16 27.1998H18.08V30.0798C18.08 30.6161 17.6563 31.0398 17.12 31.0398C16.5838 31.0398 16.16 30.6161 16.16 30.0798V27.1998ZM21.92 27.1998H23.84V30.0798C23.84 30.6161 23.4163 31.0398 22.88 31.0398C22.3438 31.0398 21.92 30.6161 21.92 30.0798V27.1998Z" fill="white" fill-opacity="0.8"/>
</g>
<defs>
<clipPath id="clip0">
<rect width="24" height="24" fill="white" transform="translate(8 8)"/>
</clipPath>
</defs>
</svg>
