<svg width="40" height="40" viewBox="0 0 40 40" fill="none" xmlns="http://www.w3.org/2000/svg">
<rect width="40" height="40" rx="8" fill="#F35555" fill-opacity="0.4"/>
<path d="M30.05 8.07074L15.8 12.5707C15.1766 12.7675 14.75 13.3441 14.75 14.0003V26.4032C14.0891 26.1501 13.3203 26.0001 12.5 26.0001C10.0156 26.0001 8 27.3454 8 29.0001C8 30.6547 10.0156 32 12.5 32C14.9844 32 17 30.6547 17 29.0001V18.3362L29.75 14.3097V23.4033C29.0891 23.1502 28.3203 23.0002 27.5 23.0002C25.0156 23.0002 23 24.3454 23 26.0001C23 27.6548 25.0156 29.0001 27.5 29.0001C29.9844 29.0001 32 27.6548 32 26.0001V9.5004C32 8.48323 31.0109 7.76606 30.05 8.07074Z" fill="white"/>
</svg>
