<svg width="40" height="40" viewBox="0 0 40 40" fill="none" xmlns="http://www.w3.org/2000/svg">
<rect width="40" height="40" rx="10" fill="#F35555"/>
<path d="M27.2752 12.7805C27.2752 12.3405 26.9062 11.9805 26.4552 11.9805H14.1552C13.7042 11.9805 13.3352 12.3405 13.3352 12.7805V28.7805C13.3352 29.2205 13.7042 29.5805 14.1552 29.5805H26.4552C26.9062 29.5805 27.2752 29.2205 27.2752 28.7805V12.7805ZM25.6352 27.9805H14.9752V13.5805H25.6352V27.9805ZM16.9227 22.6805C16.9227 22.3005 17.2507 21.9805 17.6402 21.9805H20.0592C20.4487 21.9805 20.7767 22.3005 20.7767 22.6805C20.7767 23.0605 20.4487 23.3805 20.0592 23.3805H17.6402C17.2302 23.3805 16.9227 23.0605 16.9227 22.6805ZM17.0252 19.4805C17.0252 19.1005 17.3532 18.7805 17.7427 18.7805H22.6217C23.0112 18.7805 23.3392 19.1005 23.3392 19.4805C23.3392 19.8605 23.0112 20.1805 22.6217 20.1805H17.7427C17.3532 20.1805 17.0252 19.8605 17.0252 19.4805ZM17.0252 16.4805C17.0252 16.1005 17.3532 15.7805 17.7427 15.7805H22.6217C23.0112 15.7805 23.3392 16.1005 23.3392 16.4805C23.3392 16.8605 23.0112 17.1805 22.6217 17.1805H17.7427C17.3532 17.1805 17.0252 16.8605 17.0252 16.4805ZM23.1137 22.2405C23.2367 22.3605 23.3187 22.5405 23.3187 22.7405C23.3187 22.9205 23.2367 23.1005 23.1137 23.2405C22.9907 23.3605 22.7857 23.4405 22.6012 23.4405C22.4167 23.4405 22.2322 23.3605 22.0887 23.2405C21.9452 23.1205 21.8837 22.9405 21.8837 22.7405C21.8837 22.5605 21.9657 22.3805 22.0887 22.2405C22.3552 21.9805 22.8472 21.9805 23.1137 22.2405Z" fill="white"/>
</svg>
