<svg width="34" height="30" viewBox="0 0 34 30" fill="none" xmlns="http://www.w3.org/2000/svg">
<rect x="5" width="25" height="20" rx="2" fill="#405DB5"/>
<path d="M0 6.53334C0 5.41324 0 4.85319 0.217987 4.42536C0.409734 4.04904 0.715695 3.74308 1.09202 3.55133C1.51984 3.33334 2.07989 3.33334 3.2 3.33334H11.6207C12.2469 3.33334 12.56 3.33334 12.8441 3.41965C13.0957 3.49605 13.3298 3.62131 13.5329 3.78825C13.7623 3.97683 13.936 4.23732 14.2833 4.7583L15.7167 6.90838C16.064 7.42937 16.2377 7.68986 16.4671 7.87843C16.6702 8.04538 16.9043 8.17064 17.1559 8.24704C17.44 8.33334 17.7531 8.33334 18.3793 8.33334H30.1333C31.2534 8.33334 31.8135 8.33334 32.2413 8.55133C32.6176 8.74308 32.9236 9.04904 33.1154 9.42536C33.3333 9.85319 33.3333 10.4132 33.3333 11.5333V26.8C33.3333 27.9201 33.3333 28.4802 33.1154 28.908C32.9236 29.2843 32.6176 29.5903 32.2413 29.782C31.8135 30 31.2534 30 30.1333 30H3.2C2.0799 30 1.51984 30 1.09202 29.782C0.715695 29.5903 0.409734 29.2843 0.217987 28.908C0 28.4802 0 27.9201 0 26.8V6.53334Z" fill="#4378DB"/>
</svg>
