<svg width="360" height="360" viewBox="0 0 360 360" fill="none" xmlns="http://www.w3.org/2000/svg">
<g style="mix-blend-mode:luminosity" opacity="0.15">
<rect width="360" height="360" rx="80" fill="#4378DB"/>
<rect x="114.375" y="86.25" width="140.625" height="112.5" rx="2" fill="#405DB5"/>
<path d="M86.25 108.2C86.25 107.08 86.25 106.52 86.468 106.092C86.6597 105.716 86.9657 105.41 87.342 105.218C87.7698 105 88.3299 105 89.45 105H159.537C160.164 105 160.477 105 160.761 105.086C161.012 105.163 161.246 105.288 161.45 105.455C161.679 105.643 161.853 105.904 162.2 106.425L179.05 131.7C179.397 132.221 179.571 132.482 179.8 132.67C180.004 132.837 180.238 132.962 180.489 133.039C180.773 133.125 181.086 133.125 181.713 133.125H270.55C271.67 133.125 272.23 133.125 272.658 133.343C273.034 133.535 273.34 133.841 273.532 134.217C273.75 134.645 273.75 135.205 273.75 136.325V251.8C273.75 252.92 273.75 253.48 273.532 253.908C273.34 254.284 273.034 254.59 272.658 254.782C272.23 255 271.67 255 270.55 255H89.45C88.3299 255 87.7698 255 87.342 254.782C86.9657 254.59 86.6597 254.284 86.468 253.908C86.25 253.48 86.25 252.92 86.25 251.8V108.2Z" fill="white"/>
</g>
</svg>
