<svg width="40" height="40" viewBox="0 0 40 40" fill="none" xmlns="http://www.w3.org/2000/svg">
<rect width="40" height="40" rx="10" fill="#4378DB"/>
<path fill-rule="evenodd" clip-rule="evenodd" d="M16.9 9.6001H16.861H16.861C15.7739 9.60009 14.9033 9.60008 14.1995 9.65758C13.4768 9.71663 12.8513 9.84076 12.2754 10.1342C11.3534 10.6039 10.6038 11.3536 10.134 12.2755C9.84064 12.8514 9.71651 13.477 9.65746 14.1996C9.59996 14.9034 9.59997 15.7741 9.59998 16.8611V16.8611V16.9001V23.1001V23.139V23.1391C9.59997 24.2261 9.59996 25.0968 9.65746 25.8006C9.71651 26.5232 9.84064 27.1488 10.134 27.7247C10.6038 28.6466 11.3534 29.3962 12.2754 29.866C12.8513 30.1594 13.4768 30.2836 14.1995 30.3426C14.9032 30.4001 15.7739 30.4001 16.8609 30.4001H16.861H16.9H23.1H23.1389H23.139C24.226 30.4001 25.0967 30.4001 25.8005 30.3426C26.5231 30.2836 27.1487 30.1594 27.7245 29.866C28.6465 29.3962 29.3961 28.6466 29.8659 27.7247C30.1593 27.1488 30.2834 26.5232 30.3425 25.8006C30.4 25.0968 30.4 24.2262 30.4 23.1391V23.1391V23.1001V16.9001V16.8611V16.8611C30.4 15.774 30.4 14.9034 30.3425 14.1996C30.2834 13.477 30.1593 12.8514 29.8659 12.2755C29.3961 11.3536 28.6465 10.6039 27.7245 10.1342C27.1487 9.84076 26.5231 9.71663 25.8005 9.65758C25.0967 9.60008 24.226 9.60009 23.1389 9.6001H23.1389H23.1H16.9ZM13.0926 11.738C13.3724 11.5954 13.7347 11.5016 14.3461 11.4516C14.9679 11.4008 15.765 11.4001 16.9 11.4001H23.1C24.2349 11.4001 25.032 11.4008 25.6539 11.4516C26.2652 11.5016 26.6275 11.5954 26.9073 11.738C27.4906 12.0352 27.9649 12.5094 28.2621 13.0927C28.4047 13.3725 28.4985 13.7348 28.5485 14.3462C28.5993 14.9681 28.6 15.7651 28.6 16.9001V22.4264L26.6148 19.7098C25.8158 18.6165 24.1841 18.6165 23.3852 19.7098L20.7292 23.3443C19.9663 24.3884 18.428 24.4448 17.5905 23.4596L17.0239 22.7929C16.2252 21.8533 14.7748 21.8533 13.9761 22.7929L11.4601 25.7528C11.4571 25.7206 11.4542 25.6877 11.4515 25.654C11.4007 25.0321 11.4 24.2351 11.4 23.1001V16.9001C11.4 15.7651 11.4007 14.9681 11.4515 14.3462C11.5014 13.7348 11.5953 13.3725 11.7379 13.0927C12.0351 12.5094 12.5093 12.0352 13.0926 11.738ZM18.5 16.0001C18.5 17.3808 17.3807 18.5001 16 18.5001C14.6193 18.5001 13.5 17.3808 13.5 16.0001C13.5 14.6194 14.6193 13.5001 16 13.5001C17.3807 13.5001 18.5 14.6194 18.5 16.0001Z" fill="white"/>
</svg>
