<svg width="40" height="40" viewBox="0 0 40 40" fill="none" xmlns="http://www.w3.org/2000/svg">
<rect width="40" height="40" rx="10" fill="#28A164"/>
<path d="M29 24.7804V16.7804C28.9996 16.4297 28.9071 16.0852 28.7315 15.7816C28.556 15.4779 28.3037 15.2258 28 15.0504L21 11.0504C20.696 10.8749 20.3511 10.7825 20 10.7825C19.6489 10.7825 19.304 10.8749 19 11.0504L12 15.0504C11.6963 15.2258 11.444 15.4779 11.2685 15.7816C11.0929 16.0852 11.0004 16.4297 11 16.7804V24.7804C11.0004 25.1311 11.0929 25.4756 11.2685 25.7793C11.444 26.0829 11.6963 26.3351 12 26.5104L19 30.5104C19.304 30.686 19.6489 30.7784 20 30.7784C20.3511 30.7784 20.696 30.686 21 30.5104L28 26.5104C28.3037 26.3351 28.556 26.0829 28.7315 25.7793C28.9071 25.4756 28.9996 25.1311 29 24.7804Z" stroke="white" stroke-width="2" stroke-linecap="round" stroke-linejoin="round"/>
<path d="M11.27 15.7405L20 20.7905L28.73 15.7405" stroke="white" stroke-width="2" stroke-linecap="round" stroke-linejoin="round"/>
<path d="M20 30.8605V20.7805" stroke="white" stroke-width="2" stroke-linecap="round" stroke-linejoin="round"/>
</svg>
