<svg width="40" height="40" viewBox="0 0 40 40" fill="none" xmlns="http://www.w3.org/2000/svg">
<rect width="40" height="40" rx="10" fill="#FDCD55"/>
<rect x="9" y="8.80493" width="22" height="22" rx="11" fill="#FDCD55" stroke="white" stroke-width="2"/>
<path d="M24.1265 19.6011C23.8367 19.0152 22.9853 18.5722 21.2825 17.6861C19.7923 16.9107 19.0472 16.523 18.4394 16.5926C17.8586 16.659 17.3359 16.9762 17.0089 17.4608C16.6667 17.9679 16.6667 18.8078 16.6667 20.4877C16.6667 22.1676 16.6667 23.0075 17.0089 23.5146C17.3359 23.9991 17.8586 24.3163 18.4394 24.3828C19.0472 24.4523 19.7923 24.0646 21.2825 23.2892L21.2825 23.2892C22.9853 22.4032 23.8367 21.9602 24.1265 21.3743C24.4028 20.8155 24.4028 20.1598 24.1265 19.6011Z" fill="white"/>
</svg>
